# xmcd
#
# Track frame offsets: 
#        150
#        22670
#        42482
#        80700
#        103200
#        134140
#
# Disc length: 4440 seconds
#
# Revision: 7
# Processed by: cddbd v1.5.2PL0 Copyright (c) Steve Scherf et al.
# Submitted via: ExactAudioCopy v1.3
#
DISCID=4f115606
DTITLE=上原多香子 - GLORY−君がいるから−
DYEAR=2002
DGENRE=Pop
TTITLE0=GLORY−君がいるから−
TTITLE1=Changin' my heart
TTITLE2=GLORY−君がいるから− (remixed by D.M.X.)
TTITLE3=GLORY−君がいるから− (Instrumental)
TTITLE4=Changin' my heart (Instrumental)
TTITLE5=data
EXTD=YEAR: 2002
EXTT0=
EXTT1=
EXTT2=
EXTT3=
EXTT4=
EXTT5=
PLAYORDER=
